<svg xmlns="http://www.w3.org/2000/svg" xmlns:xlink="http://www.w3.org/1999/xlink" width="1920" height="1276" viewBox="0 0 1920 1276">
  <g id="Mask_Group_1" data-name="Mask Group 1" transform="translate(0 -1659)" clip-path="url(#clip-path)">
    <path id="Path_1" data-name="Path 1" d="M1920,2207.216s-105,154.882-547,146.857-526.367,72.575-656.927,257.021C635,2725.629,305.3,2915.992,440,3013.725c146,105.93,483-6.42,706-45.742,530.405-93.528,774,85.065,774,85.065Z" transform="translate(-0.384 -118)" fill="#f0f0f0"/>
    <path id="Path_2" data-name="Path 2" d="M-74.714,1777s67.741,471.676,362.7,494.4c545,42,372.651,437.879,223.586,386.406-186.4-64.362-25.481,395.169-626.785,395.169C-115.214,3052.979-508.539,2131.372-74.714,1777Z" transform="translate(-0.384 -118)" fill="#f0f0f0"/>
    <path id="Path_3" data-name="Path 3" d="M696.228,2260.839c133.428,54.58,213.741,64.573,106.871,126.48S619.085,2229.283,696.228,2260.839Z" transform="translate(-0.384 -118)" fill="#f0f0f0"/>
  </g>
</svg>
