<svg xmlns="http://www.w3.org/2000/svg" xmlns:xlink="http://www.w3.org/1999/xlink" width="1926" height="1021.279" viewBox="0 0 1926 1021.279"><defs><linearGradient id="a" y1="0.5" x2="1" y2="0.5" gradientUnits="objectBoundingBox"><stop offset="0" stop-color="#88d2de"/><stop offset="0.994" stop-color="#7f95c1"/></linearGradient><clipPath id="b"><path d="M946.95,851.512c472.472,115.726,930.9,20.252,979.05-372.251V-1H1135.111c-29.795,9.831-57.642,21.62-82.833,35.682C865.7,138.835,815.541,311.459,476.484,304.709,255.824,300.315,0,252.632,0,252.632v767.647S343.306,703.657,946.95,851.512Z" transform="translate(0 1)" fill="url(#a)"/></clipPath><linearGradient id="c" xlink:href="#a"/><linearGradient id="d" x1="-0.063" y1="0.787" x2="0.781" y2="0.407" xlink:href="#a"/><filter id="e" x="353.251" y="139.879" width="200" height="53" filterUnits="userSpaceOnUse"><feOffset input="SourceAlpha"/><feGaussianBlur result="f"/><feFlood/><feComposite operator="in" in2="f"/><feComposite in="SourceGraphic"/></filter><clipPath id="g"><rect width="1256" height="348" fill="#fff" stroke="#707070" stroke-width="1"/></clipPath><filter id="h" x="-84.766" y="-150.154" width="1593.914" height="487.312" filterUnits="userSpaceOnUse"><feOffset dx="7" dy="10" input="SourceAlpha"/><feGaussianBlur stdDeviation="10.5" result="i"/><feFlood flood-opacity="0.2"/><feComposite operator="in" in2="i"/><feComposite in="SourceGraphic"/></filter></defs><g clip-path="url(#b)"><path d="M1778.362-43.9s21.093,303.861-205.426,445.539c-97.827,61.186-658.462,335.553-134.81,457.656s-320.06,172.437-320.06,172.437L-142,1082.063-101.649-70Z" transform="translate(101.293 103.203)" fill="#82a6c9" opacity="0.88"/><path d="M790.712,39.646s34.6,143.542-59.069,269.374S432.922,528.061,514.775,702.362C625.7,938.566-273.377,1077.994-270,1035.118s67.508-751.265,48.1-811.85S-188.993-226-169.584-226,790.712,39.646,790.712,39.646Z" transform="translate(214.584 50.475)" opacity="0.38" fill="url(#c)"/><text transform="matrix(1, -0.008, 0.008, 1, 1063.857, 177.251)" fill="#fff" font-size="18" font-family="SegoeUI, Segoe UI" letter-spacing="0.07em"><tspan x="-26.012" y="0">Home</tspan></text><text transform="translate(1204.697 179.238)" fill="#fff" font-size="19" font-family="SegoeUI, Segoe UI" letter-spacing="0.07em"><tspan x="-55.876" y="0">Information</tspan></text><text transform="translate(1385.506 179.238)" fill="#fff" font-size="19" font-family="SegoeUI, Segoe UI" letter-spacing="0.07em"><tspan x="-63.267" y="0">News or Blog</tspan></text><text transform="translate(1554.2 179.238)" fill="#fff" font-size="19" font-family="SegoeUI, Segoe UI" letter-spacing="0.07em"><tspan x="-38.443" y="0">Register</tspan></text><line y2="20.992" transform="translate(1126.885 164.157)" fill="none" stroke="#fff" stroke-miterlimit="10" stroke-width="1"/><line y2="20.992" transform="translate(1298.73 164.157)" fill="none" stroke="#fff" stroke-miterlimit="10" stroke-width="1"/><line y2="20.992" transform="translate(1491.059 164.157)" fill="none" stroke="#fff" stroke-miterlimit="10" stroke-width="1"/><g transform="translate(1586.877 127.908)"><text transform="translate(46 12.124)" fill="#fff" font-size="10" font-family="SegoeUI, Segoe UI" letter-spacing="0.1em"><tspan x="-46.142" y="0">Register / Sign In</tspan></text><g transform="translate(134.177)"><path d="M1727.242,111.442a2.543,2.543,0,0,0-2.365-1.859h-2.169l-1.548,1.726a1.326,1.326,0,0,1-1.948,0l-1.548-1.726h-2.17a2.544,2.544,0,0,0-2.365,1.859h0a1.556,1.556,0,0,0-.069,2.351l2.91,2.748a6.214,6.214,0,0,0,8.43,0l2.911-2.748a1.557,1.557,0,0,0-.07-2.351Z" transform="translate(-1712.557 -100.222)" fill="#fff"/><path d="M1724.857,99.54h-4.629a3.954,3.954,0,1,0,4.183,3.947,3.764,3.764,0,0,0-.658-2.123h1.1a.94.94,0,0,0,.966-.913h0A.94.94,0,0,0,1724.857,99.54Z" transform="translate(-1712.599 -99.54)" fill="#fff"/></g></g><path d="M620.357-6.571" transform="translate(21.643 35.574)" fill="none" stroke="#76d5d2" stroke-miterlimit="10" stroke-width="1"/><g transform="translate(890.97 316.625)"><path d="M0,0H20.057a0,0,0,0,1,0,0V0A7.567,7.567,0,0,1,12.49,7.567H7.567A7.567,7.567,0,0,1,0,0V0A0,0,0,0,1,0,0Z" transform="translate(413.186 265.891) rotate(-180)" fill="#e4f3f3"/><path d="M1281.263,592.608a6.18,6.18,0,0,0-3.924,6.745" transform="translate(-880.229 -333.457)" fill="none" stroke="#717272" stroke-linecap="round" stroke-linejoin="round" stroke-width="1.167"/><g transform="translate(311.924 19.512)"><path d="M1357.64,355.663V338.933H1191.215V505.649H1357.64V375.957" transform="translate(-1191.215 -338.933)" fill="none" stroke="#9fd9ef" stroke-linecap="round" stroke-linejoin="round" stroke-width="1.167"/><rect width="150.166" height="151.433" transform="translate(158.295 159.075) rotate(180)" stroke-width="1.167" stroke="#9fd9ef" stroke-linecap="round" stroke-linejoin="round" fill="none"/><path d="M1244.268,461.805v4.128h-17.125v16.416h-4.651V461.805Z" transform="translate(-1191.592 -347.278)" fill="none" stroke="#9fd9ef" stroke-linecap="round" stroke-linejoin="round" stroke-width="1.167"/><rect width="21.776" height="20.544" transform="translate(57.327 139.2) rotate(180)" stroke-width="1.167" stroke="#9fd9ef" stroke-linecap="round" stroke-linejoin="round" fill="none"/><path d="M1249.052,465.635H1244.4v-4.128h-10.888v-4.1h21.776v20.544h-6.237Z" transform="translate(-1191.725 -346.979)" fill="none" stroke="#9fd9ef" stroke-linecap="round" stroke-linejoin="round" stroke-width="1.167"/><ellipse cx="2.532" cy="2.389" rx="2.532" ry="2.389" transform="translate(43.907 121.991)" fill="#e9e9e9" stroke="#9fd9ef" stroke-miterlimit="10" stroke-width="1"/><rect width="45.098" height="31.557" transform="translate(137.255 141.475) rotate(180)" stroke-width="1.167" stroke="#9fd9ef" stroke-linecap="round" stroke-linejoin="round" fill="none"/><path d="M1293.447,453.838s-6.685,7.28-12.136,9.748" transform="translate(-1192.3 -346.737)" fill="none" stroke="#9fd9ef" stroke-linecap="round" stroke-linejoin="round" stroke-width="1.167"/><path d="M1333.25,485.666s-6.718,1.558-8.026,6.863" transform="translate(-1192.828 -348.898)" fill="none" stroke="#9fd9ef" stroke-linecap="round" stroke-linejoin="round" stroke-width="1.167"/><path d="M0,0H10.392a0,0,0,0,1,0,0V12.283A1.647,1.647,0,0,1,8.745,13.93h-7.1A1.647,1.647,0,0,1,0,12.283V0A0,0,0,0,1,0,0Z" transform="translate(112.896 141.475) rotate(180)" fill="none" stroke="#9fd9ef" stroke-linecap="round" stroke-linejoin="round" stroke-width="1.167"/><ellipse cx="5.196" cy="4.902" rx="5.196" ry="4.902" transform="translate(102.504 115.798)" stroke-width="1.167" stroke="#9fd9ef" stroke-linecap="round" stroke-linejoin="round" fill="none"/><path d="M0,0H10.392a0,0,0,0,1,0,0V9.947a1.647,1.647,0,0,1-1.647,1.647h-7.1A1.647,1.647,0,0,1,0,9.947V0A0,0,0,0,1,0,0Z" transform="translate(126.005 141.475) rotate(180)" fill="none" stroke="#9fd9ef" stroke-linecap="round" stroke-linejoin="round" stroke-width="1.167"/><ellipse cx="5.196" cy="4.902" rx="5.196" ry="4.902" transform="translate(115.613 118.134)" stroke-width="1.167" stroke="#9fd9ef" stroke-linecap="round" stroke-linejoin="round" fill="none"/><line x2="8.129" transform="translate(158.295 107.6)" stroke-width="1.167" stroke="#9fd9ef" stroke-linecap="round" stroke-linejoin="round" fill="none"/><line x2="8.129" transform="translate(158.295 115.649)" stroke-width="1.167" stroke="#9fd9ef" stroke-linecap="round" stroke-linejoin="round" fill="none"/><line x2="8.129" transform="translate(158.295 123.154)" stroke-width="1.167" stroke="#9fd9ef" stroke-linecap="round" stroke-linejoin="round" fill="none"/><rect width="121" height="57.946" transform="translate(144.106 79.135) rotate(180)" fill="#e4f3f3"/><g transform="translate(29.011 33.5)"><path d="M1234.632,389.524l-8.062,17.118c-4.28,0-7.106-4.194-5.284-7.844l11.831-23.7h0A13.968,13.968,0,0,1,1234.632,389.524Zm2.494-6.856c.554,3.236.649,7.463-.8,10.535L1235,396.014l2.707,6h9.073Z" transform="translate(-1220.724 -375.102)" fill="none" stroke="#9fd9ef" stroke-linecap="round" stroke-linejoin="round" stroke-width="1.167"/></g><text transform="translate(59.945 54.024)" stroke="#9fd9ef" stroke-linecap="round" stroke-linejoin="round" stroke-width="0.8" font-size="13" font-family="SegoeUI, Segoe UI" letter-spacing="0.1em" fill="none"><tspan x="0" y="0">Applicant</tspan></text><rect width="131" height="66.327" transform="translate(149.106 82.86) rotate(180)" stroke-width="1.167" stroke="#9fd9ef" stroke-linecap="round" stroke-linejoin="round" fill="none"/></g><path d="M1282.1,567.223l-5.319-58.491a9.042,9.042,0,0,0-8.937-8.015l3.845-.016a9.044,9.044,0,0,1,8.938,8.015l5.319,58.491a7.336,7.336,0,0,1-7.474,8.082l-3.846.016A7.336,7.336,0,0,0,1282.1,567.223Z" transform="translate(-880.133 -327.919)" fill="#a5b0b5"/><g transform="translate(86.668 159.453)"><g transform="translate(0 149.996)"><path d="M6.6,0H77.339a6.6,6.6,0,0,1,6.6,6.6V36.138a3.157,3.157,0,0,1-3.157,3.157H6.6a6.6,6.6,0,0,1-6.6-6.6V6.6A6.6,6.6,0,0,1,6.6,0Z" transform="translate(147.31 84.467) rotate(-180)" fill="none" stroke="#9fd9ef" stroke-linecap="round" stroke-linejoin="round" stroke-width="1.167"/><path d="M6.6,0H77.339a6.6,6.6,0,0,1,6.6,6.6V36.138a3.157,3.157,0,0,1-3.157,3.157H6.6a6.6,6.6,0,0,1-6.6-6.6V6.6A6.6,6.6,0,0,1,6.6,0Z" transform="translate(147.31 130.006) rotate(180)" fill="none" stroke="#9fd9ef" stroke-linecap="round" stroke-linejoin="round" stroke-width="1.167"/><path d="M5.727,0h79.16a5.727,5.727,0,0,1,5.727,5.727V95.686a3.761,3.761,0,0,1-3.761,3.761H5.727A5.727,5.727,0,0,1,0,93.72V5.727A5.727,5.727,0,0,1,5.727,0Z" transform="translate(147.588 137.293) rotate(180)" fill="none" stroke="#9fd9ef" stroke-linecap="round" stroke-linejoin="round" stroke-width="1.167"/><line y2="10.693" transform="translate(79.647 137.293)" stroke-width="1.167" stroke="#9fd9ef" stroke-linecap="round" stroke-linejoin="round" fill="none"/><line y2="10.804" transform="translate(134.217 137.293)" stroke-width="1.167" stroke="#9fd9ef" stroke-linecap="round" stroke-linejoin="round" fill="none"/><path d="M1038.987,692.266v24.642a8.605,8.605,0,0,0,8.845,8.345h56.9" transform="translate(-966.13 -647.094)" fill="none" stroke="#9fd9ef" stroke-linecap="round" stroke-linejoin="round" stroke-width="1.167"/><path d="M1038.987,741.682v24.643a8.606,8.606,0,0,0,8.845,8.345h56.9" transform="translate(-966.13 -650.45)" fill="none" stroke="#9fd9ef" stroke-linecap="round" stroke-linejoin="round" stroke-width="1.167"/><rect width="59.154" height="12.615" rx="2.119" transform="translate(149.847 37.845) rotate(180)" stroke-width="1.167" stroke="#9fd9ef" stroke-linecap="round" stroke-linejoin="round" fill="none"/><rect width="48.663" height="12.615" rx="2.119" transform="translate(145.274 12.615) rotate(-180)" stroke-width="1.167" stroke="#9fd9ef" stroke-linecap="round" stroke-linejoin="round" fill="none"/><path d="M1062.963,663.644a6.416,6.416,0,0,0-5.529-6.2,7.055,7.055,0,0,1,1.158-.11h46.347a6.318,6.318,0,1,1,0,12.615h-46.347a7.055,7.055,0,0,1-1.158-.11A6.416,6.416,0,0,0,1062.963,663.644Z" transform="translate(-966.352 -644.722)" fill="none" stroke="#9fd9ef" stroke-linecap="round" stroke-linejoin="round" stroke-width="1.167"/><line x2="13.371" y2="56.414" transform="translate(16.036 88.56)" stroke-width="1.167" stroke="#9fd9ef" stroke-linecap="round" stroke-linejoin="round" fill="none"/><line x2="13.371" y2="56.414" transform="translate(29.601 88.56)" stroke-width="1.167" stroke="#9fd9ef" stroke-linecap="round" stroke-linejoin="round" fill="none"/><line x2="13.371" y2="56.414" transform="translate(43.167 88.56)" stroke-width="1.167" stroke="#9fd9ef" stroke-linecap="round" stroke-linejoin="round" fill="none"/><line x2="1.599" y2="6.079" transform="translate(55.375 88.56)" stroke-width="1.167" stroke="#9fd9ef" stroke-linecap="round" stroke-linejoin="round" fill="none"/><line x1="6.203" y2="26.171" transform="translate(50.335 118.804)" stroke-width="1.167" stroke="#9fd9ef" stroke-linecap="round" stroke-linejoin="round" fill="none"/><line x1="13.371" y2="56.414" transform="translate(36.77 88.56)" stroke-width="1.167" stroke="#9fd9ef" stroke-linecap="round" stroke-linejoin="round" fill="none"/><line x1="13.371" y2="56.414" transform="translate(23.205 88.56)" stroke-width="1.167" stroke="#9fd9ef" stroke-linecap="round" stroke-linejoin="round" fill="none"/><line x1="9.688" y2="38.054" transform="translate(14.68 88.56)" stroke-width="1.167" stroke="#9fd9ef" stroke-linecap="round" stroke-linejoin="round" fill="none"/><path d="M969.6,729.989h52.613v8.227H969.6a4.12,4.12,0,1,1,0-8.227Z" transform="translate(-965.242 -649.656)" fill="none" stroke="#9fd9ef" stroke-linecap="round" stroke-linejoin="round" stroke-width="1.167"/><path d="M1002.548,738.815h19.735v36.118a12.453,12.453,0,0,0,6.284,10.683l-2.233,9.615h-42.4l-13.1-56.415Z" transform="translate(-965.309 -650.255)" fill="none" stroke="#9fd9ef" stroke-linecap="round" stroke-linejoin="round" stroke-width="1.167"/><path d="M981.653,802.351a4.307,4.307,0,0,1,4.176-3.011H1024.7a4.308,4.308,0,0,1,4.176,3.011Z" transform="translate(-965.44 -654.365)" fill="none" stroke="#9fd9ef" stroke-linecap="round" stroke-linejoin="round" stroke-width="1.167"/></g><g transform="translate(90.693)"><line x2="374.736" transform="translate(0 308.066)" stroke-width="1.167" stroke="#9fd9ef" stroke-linecap="round" stroke-linejoin="round" fill="none"/><line x2="156.142" transform="translate(405.22 308.066)" stroke-width="1.167" stroke="#9fd9ef" stroke-linecap="round" stroke-linejoin="round" fill="none"/><line x1="213.284" transform="translate(212.452 315.913)" stroke-width="1.167" stroke="#9fd9ef" stroke-linecap="round" stroke-linejoin="round" fill="none"/><line x1="20.483" transform="translate(166.885 315.913)" stroke-width="1.167" stroke="#9fd9ef" stroke-linecap="round" stroke-linejoin="round" fill="none"/><g transform="translate(260.508)"><path d="M1356.845,680.835h12.409a16,16,0,0,0,14.641-9.043c24.964-54.474,27.217-86.738,29.64-98.943.128-.648,2.463-4.348,4.38-4.735,2.656-.536,5.751-.813,5.751-.813l-9.026-8.516V487.359a4.622,4.622,0,0,1,4.75-4.482h97.523a4.622,4.622,0,0,0-4.75,4.482V567.3s-2.617,43.115-30.745,104.491a16,16,0,0,1-14.641,9.043h-12.409a7.4,7.4,0,0,0-7.606,7.175v1.605H1349.24V688.01A7.4,7.4,0,0,1,1356.845,680.835Z" transform="translate(-1321.065 -482.878)" fill="none" stroke="#9fd9ef" stroke-linecap="round" stroke-linejoin="round" stroke-width="1.167"/><path d="M1424.463,567.3a8.782,8.782,0,0,1-9.026-8.516V487.359a4.622,4.622,0,0,1,4.75-4.482h97.523a4.622,4.622,0,0,0-4.75,4.482V567.3Z" transform="translate(-1321.862 -482.878)" fill="none" stroke="#9fd9ef" stroke-linecap="round" stroke-linejoin="round" stroke-width="1.167"/><rect width="116.66" height="23.138" rx="3.887" transform="translate(122.064 206.737) rotate(-180)" stroke-width="1.167" stroke="#9fd9ef" stroke-linecap="round" stroke-linejoin="round" fill="none"/><rect width="90.644" height="23.138" rx="3.887" transform="translate(90.644 206.737) rotate(-180)" stroke-width="1.167" stroke="#9fd9ef" stroke-linecap="round" stroke-linejoin="round" fill="none"/><path d="M1.629,0H103.884a1.629,1.629,0,0,1,1.629,1.629V4.847a0,0,0,0,1,0,0H0a0,0,0,0,1,0,0V1.629A1.629,1.629,0,0,1,1.629,0Z" transform="translate(140.147 211.584) rotate(-180)" fill="none" stroke="#9fd9ef" stroke-linecap="round" stroke-linejoin="round" stroke-width="1.167"/><rect width="26.946" height="11.256" transform="translate(101.035 222.84) rotate(180)" stroke-width="1.167" stroke="#9fd9ef" stroke-linecap="round" stroke-linejoin="round" fill="none"/><rect width="10.375" height="62.379" transform="translate(92.75 285.219) rotate(180)" stroke-width="1.167" stroke="#9fd9ef" stroke-linecap="round" stroke-linejoin="round" fill="none"/><ellipse cx="4.745" cy="4.477" rx="4.745" ry="4.477" transform="translate(34.634 289.029)" stroke-width="1.167" stroke="#9fd9ef" stroke-linecap="round" stroke-linejoin="round" fill="none"/><ellipse cx="4.745" cy="4.477" rx="4.745" ry="4.477" transform="translate(82.645 289.029)" stroke-width="1.167" stroke="#9fd9ef" stroke-linecap="round" stroke-linejoin="round" fill="none"/><ellipse cx="4.745" cy="4.477" rx="4.745" ry="4.477" transform="translate(130.656 289.029)" stroke-width="1.167" stroke="#9fd9ef" stroke-linecap="round" stroke-linejoin="round" fill="none"/><path d="M0,0H105.857a0,0,0,0,1,0,0V3.584A1.814,1.814,0,0,1,104.043,5.4H1.814A1.814,1.814,0,0,1,0,3.584V0A0,0,0,0,1,0,0Z" transform="translate(140.49 289.988) rotate(180)" fill="none" stroke="#9fd9ef" stroke-linecap="round" stroke-linejoin="round" stroke-width="1.167"/><path d="M0,0H22.8a0,0,0,0,1,0,0V3.584A1.814,1.814,0,0,1,20.983,5.4H1.814A1.814,1.814,0,0,1,0,3.584V0A0,0,0,0,1,0,0Z" transform="translate(98.96 289.988) rotate(180)" fill="none" stroke="#9fd9ef" stroke-linecap="round" stroke-linejoin="round" stroke-width="1.167"/><path d="M1462.576,704.678" transform="translate(-1322.429 -497.94)" fill="none" stroke="#9fd9ef" stroke-linecap="round" stroke-linejoin="round" stroke-width="1.167"/><g transform="translate(122.064 183.599)"><path d="M1451.4,679.854H1474a6.928,6.928,0,0,1,7.121,6.718v1.045a16.246,16.246,0,0,1-13.2,6.594h-12.409a7.4,7.4,0,0,0-7.605,7.175v.71a6.642,6.642,0,0,1-3.634-5.825v-9.7A6.929,6.929,0,0,1,1451.4,679.854Z" transform="translate(-1444.273 -679.854)" fill="none" stroke="#9fd9ef" stroke-linecap="round" stroke-linejoin="round" stroke-width="1.167"/></g><path d="M1518.9,567.3a4.622,4.622,0,0,1-4.75-4.482v-75.46a4.758,4.758,0,0,1,9.5,0v75.46A4.622,4.622,0,0,1,1518.9,567.3Z" transform="translate(-1323.05 -482.878)" fill="none" stroke="#9fd9ef" stroke-linecap="round" stroke-linejoin="round" stroke-width="1.167"/><path d="M1482.606,671.792c28.128-61.376,30.745-104.491,30.745-104.491V487.359a4.622,4.622,0,0,1,4.75-4.482h0a4.622,4.622,0,0,1,4.75,4.482v80.567c-3.78,36.68-21,86.995-30.7,112.5a14.682,14.682,0,0,1-13.847,9.19h-30.354V688.01a7.4,7.4,0,0,1,7.605-7.175h12.409A16,16,0,0,0,1482.606,671.792Z" transform="translate(-1322.253 -482.878)" fill="none" stroke="#9fd9ef" stroke-linecap="round" stroke-linejoin="round" stroke-width="1.167"/><path d="M1505.42,485.953s5.11,3.276,3.148,8.119a24.326,24.326,0,0,0-1.349,10.378s-4.852-8.13-3.01-11.5C1506.126,489.437,1505.885,486.037,1505.42,485.953Z" transform="translate(-1322.925 -483.087)" fill="none" stroke="#9fd9ef" stroke-linecap="round" stroke-linejoin="round" stroke-width="1.167"/></g></g></g><g transform="translate(187.6 19.511)"><path d="M1146.516,358.278a41.523,41.523,0,0,0-6.042-6.936" transform="translate(-1067.194 -339.776)" fill="none" stroke="#9fd9ef" stroke-linecap="round" stroke-linejoin="round" stroke-width="1.167"/><path d="M1118.6,339.85a45.824,45.824,0,0,0-9.147-.917c-23.833,0-43.152,18.228-43.152,40.712s19.32,40.712,43.152,40.712,43.152-18.227,43.152-40.712a38.6,38.6,0,0,0-3.206-15.426" transform="translate(-1066.301 -338.933)" fill="none" stroke="#9fd9ef" stroke-linecap="round" stroke-linejoin="round" stroke-width="1.167"/><ellipse cx="34.054" cy="32.128" rx="34.054" ry="32.128" transform="translate(9.098 8.584)" stroke-width="1.167" stroke="#9fd9ef" stroke-linecap="round" stroke-linejoin="round" fill="none"/><path d="M1109.814,383.652l-9.7-16.82-3.8-6.593,6.378,5.309-3.864,1.851" transform="translate(-1066.662 -340.38)" fill="none" stroke="#9fd9ef" stroke-linecap="round" stroke-linejoin="round" stroke-width="1.167"/><path d="M1109.805,385.357H1095.57l4.017,2.26" transform="translate(-1066.653 -342.086)" fill="none" stroke="#9fd9ef" stroke-linecap="round" stroke-linejoin="round" stroke-width="1.167"/><line y2="3.017" transform="translate(43.152 63.334)" stroke-width="1.167" stroke="#9fd9ef" stroke-linecap="round" stroke-linejoin="round" fill="none"/><line x2="1.599" y2="2.613" transform="translate(55.141 60.303)" stroke-width="1.167" stroke="#9fd9ef" stroke-linecap="round" stroke-linejoin="round" fill="none"/><line x2="2.769" y2="1.508" transform="translate(63.917 52.023)" stroke-width="1.167" stroke="#9fd9ef" stroke-linecap="round" stroke-linejoin="round" fill="none"/><line x2="3.197" transform="translate(67.13 40.712)" stroke-width="1.167" stroke="#9fd9ef" stroke-linecap="round" stroke-linejoin="round" fill="none"/><line y1="1.508" x2="2.769" transform="translate(63.917 27.893)" stroke-width="1.167" stroke="#9fd9ef" stroke-linecap="round" stroke-linejoin="round" fill="none"/><line y1="2.613" x2="1.599" transform="translate(55.141 18.508)" stroke-width="1.167" stroke="#9fd9ef" stroke-linecap="round" stroke-linejoin="round" fill="none"/></g><g transform="translate(545.285 19.512)"><path d="M1588.581,360.37v74.025H1433.825V382.679" transform="translate(-1425.951 -340.389)" fill="none" stroke="#9fd9ef" stroke-linecap="round" stroke-linejoin="round" stroke-width="1.167"/><rect width="168.836" height="11.501" transform="translate(168.836 105.507) rotate(180)" stroke-width="1.167" stroke="#9fd9ef" stroke-linecap="round" stroke-linejoin="round" fill="none"/><rect width="7.746" height="11.501" transform="translate(168.836 94.005)" stroke-width="1.167" stroke="#9fd9ef" stroke-linecap="round" stroke-linejoin="round" fill="none"/><path d="M1525.236,338.933v33.236l63.464.167v11.015l-63.464-.167v49.754H1513.56V383.184l-69.823.167V372.336l69.823-.167V338.933" transform="translate(-1426.07 -338.933)" fill="none" stroke="#9fd9ef" stroke-linecap="round" stroke-linejoin="round" stroke-width="1.167"/><line y2="80.363" transform="translate(17.666 13.81)" stroke-width="1.167" stroke="#9fd9ef" stroke-linecap="round" stroke-linejoin="round" fill="none"/><line y1="12.752" transform="translate(7.874 19.98)" stroke-width="1.167" stroke="#9fd9ef" stroke-linecap="round" stroke-linejoin="round" fill="none"/><line y2="49.733" transform="translate(104.399 44.272)" stroke-width="1.167" stroke="#9fd9ef" stroke-linecap="round" stroke-linejoin="round" fill="none"/><line y1="32.733" transform="translate(104.399)" stroke-width="1.167" stroke="#9fd9ef" stroke-linecap="round" stroke-linejoin="round" fill="none"/><rect width="33.138" height="4.768" rx="0.801" transform="translate(67.211 86.589) rotate(180)" stroke-width="1.167" stroke="#9fd9ef" stroke-linecap="round" stroke-linejoin="round" fill="none"/><line y2="49.604" transform="translate(24.556 44.402)" stroke-width="1.167" stroke="#9fd9ef" stroke-linecap="round" stroke-linejoin="round" fill="none"/></g><path d="M936.657,807.407" transform="translate(-878.23 -345.464)" fill="none" stroke="#1a69a5" stroke-linecap="round" stroke-linejoin="round" stroke-width="1.167"/><path d="M1018.856,762.984a11.114,11.114,0,0,1,3.878.7v12.891a11.965,11.965,0,0,0,1.2,5.208,11.055,11.055,0,0,1-5.08,1.222c-5.86,0-10.61-4.481-10.61-10.01S1013,762.984,1018.856,762.984Z" transform="translate(-879.092 -342.447)" fill="#e4f3f3"/><path d="M.119.068,12.79.388l.561,21.593L.68,21.66Z" transform="translate(138.096 447.659) rotate(150)" fill="#e4f3f3"/><rect width="8.532" height="12.896" transform="translate(145.535 453.452) rotate(180)" fill="#e4f3f3"/><ellipse cx="5.844" cy="5.514" rx="5.844" ry="5.514" transform="translate(102.704 429.331)" fill="#e4f3f3"/><ellipse cx="7.336" cy="6.921" rx="7.336" ry="6.921" transform="translate(106.608 439.611)" fill="#e4f3f3"/><line x1="928.686" transform="translate(0 457.435)" stroke-width="1.167" stroke="#717272" stroke-linecap="round" stroke-linejoin="round" fill="none"/><path d="M1495.868,512.025h18.914v14.328a7.023,7.023,0,0,1-7.218,6.81h-4.471a7.029,7.029,0,0,1-7.225-6.816Z" transform="translate(-881.657 -328.849)" fill="#e4f3f3"/><path d="M1658.329,393.4h7.647a28.6,28.6,0,0,0,9.674-1.7l1.193,9.331-14.3,7.787-14.32-7.8,1.172-9.061A28.66,28.66,0,0,0,1658.329,393.4Z" transform="translate(-881.9 -323.005)" fill="#e9bd9f"/><path d="M1658.329,393.4h7.647a28.6,28.6,0,0,0,9.674-1.7l1.193,9.331-14.3,7.787-14.32-7.8,1.172-9.061A28.66,28.66,0,0,0,1658.329,393.4Z" transform="translate(-881.9 -323.005)" fill="none" stroke="#717272" stroke-linecap="round" stroke-linejoin="round" stroke-width="1.167"/><path d="M1633.318,350.083s.771-2.75,1.622-5.188a5.686,5.686,0,0,1,5.427-3.678h19.738a6.13,6.13,0,0,0,6.3-5.944h15.34a8.8,8.8,0,0,1,9.047,8.535v6.275h2.2c.019,0,.036,0,.056,0v24.08c0,8.512-7.314,15.412-16.336,15.412h-29.537c-9.022,0-16.335-6.9-16.335-15.412V350.083Z" transform="translate(-881.691 -319.173)" fill="#f3cdb0"/><path d="M1627.563,334.1a5.484,5.484,0,0,1,.081-.758v-2.477h0c0-7.105,6.106-12.866,13.637-12.866h41.076c7.532,0,13.638,5.76,13.638,12.866h0v15.622c0,1.338-1.363,2.423-3.043,2.423h-2.2v-6.275a8.8,8.8,0,0,0-9.046-8.535h-15.341a6.13,6.13,0,0,1-6.3,5.944h-19.738a5.689,5.689,0,0,0-5.428,3.679c-.851,2.438-1.621,5.187-1.621,5.187h-2.591c-1.681,0-3.043-1.085-3.043-2.423v-11.63A5.5,5.5,0,0,1,1627.563,334.1Z" transform="translate(-881.652 -318)" fill="#0c5775"/><path d="M1526.786,512.607l-5.776.933v11.12s7.792-.506,7.994-3.165a64.314,64.314,0,0,0-.258-7.445A1.66,1.66,0,0,0,1526.786,512.607Z" transform="translate(-881.866 -328.926)" fill="#f3cdb0"/><g transform="translate(639.745 177.309)"><path d="M1526.974,524.253c-.079.032-.156.065-.238.1C1526.818,524.318,1526.9,524.285,1526.974,524.253Z" transform="translate(-1521.643 -507.05)" fill="#f3cdb0"/><path d="M1525.094,524.876c-.066.016-.13.034-.2.048C1524.962,524.91,1525.027,524.891,1525.094,524.876Z" transform="translate(-1521.62 -507.092)" fill="#f3cdb0"/><path d="M1526.078,524.59c-.083.025-.162.053-.246.077C1525.916,524.643,1525.995,524.615,1526.078,524.59Z" transform="translate(-1521.631 -507.073)" fill="#f3cdb0"/><path d="M1527.6,524.388v-1.7c-.037.02-.082.035-.121.055.857-.436,1.475-.991,1.529-1.708a64.314,64.314,0,0,0-.258-7.445,1.644,1.644,0,0,0-1.793-1.453,4.367,4.367,0,0,0-2.315-1.774l3.088-.3-3.088.3a4.549,4.549,0,0,0-1.432-.238c-3.474-1.621-.31-3.971-.4-4.308s10.029,3.754,10.029,3.754l3.355-.324,2.651,12.909-2.9,3.619a5.076,5.076,0,0,1-3.381,1.843s-7.43,2.752-7.43,1.46l-.2-.883A4.143,4.143,0,0,0,1527.6,524.388Z" transform="translate(-1521.58 -505.797)" fill="#f3cdb0"/></g><path d="M1701.046,765.312V570.487h-75.841l-2.868,66.678V765.312h22.867L1662.9,628.118l15.679,137.194Z" transform="translate(-881.589 -329.375)" fill="#5e91b7"/><path d="M1659.019,414.989l-19.483-10.924,5.822-3.978,17.086,9.307Z" transform="translate(-881.796 -323.574)" fill="#e4f3f3"/><path d="M1685.9,403.73l-19.757,11.223-3.424-5.6,17.986-9.8Z" transform="translate(-882.075 -323.539)" fill="#e4f3f3"/><path d="M1656.872,419.435l5.731-9.364,1.705,2.787,3.783,102.371-5.261,4.24-10.1-7.771Z" transform="translate(-881.955 -322.877)" fill="#3f8ecc"/><g transform="translate(757.74 93.011)"><path d="M1666.188,416.074l2.306,3.769-2.306-3.769Z" transform="translate(-1639.857 -416.074)" fill="#e4f3f3"/><path d="M1659.228,416.074l-2.306,3.769,2.306-3.769Z" transform="translate(-1639.745 -416.074)" fill="#e4f3f3"/><path d="M1648.816,416.074l7.9,3.769-4.14,92.262,10.1,7.771,9.643-7.771-4.14-92.262,6.919-3.769h10.532V547.311l-3.262,7.949h-42.827V416.074Z" transform="translate(-1639.536 -416.074)" fill="#e4f3f3"/></g><path d="M1581.746,494.982a11.781,11.781,0,0,0,9.981-8.351l17.538-63.352a16.476,16.476,0,0,1,.535-1.588c4.3-6.394,22.011-5.973,22.011-5.973l-8.914,15.938,10.233,8.87-13.454,8.226,18.612,73.4v46.1h-25.463V506.115a20.612,20.612,0,0,1-16.251,11.6l-55.514,7.054-5.181-23.892Z" transform="translate(-881.567 -322.978)" fill="#74aad4"/><path d="M1676.739,583.329l31.432-76.1V494.55l-.447-46.351L1721.2,433.75a38.441,38.441,0,0,1,1.162,4.093l13.979,68.655a41.875,41.875,0,0,1-2.455,6.934l-37.345,81.252-23.849-13.678Z" transform="translate(-882.195 -323.843)" fill="#74aad4"/><g transform="translate(803.829 87.197)"><path d="M1689.01,409.954h.2l2.085,4.082Z" transform="translate(-1686.22 -409.954)" fill="#a16127"/><path d="M1690.662,440.414l10.233-8.87-9.635-17.228s22.611-3.724,30.1,18.1l-13.473,14.449.447,46.351-22.147,53.961V519.357l17.932-70.718Z" transform="translate(-1686.186 -410.234)" fill="#74aad4"/></g><path d="M1708.555,577.859l9.5-20.679-.046.471v20.208Z" transform="translate(-882.627 -331.376)" fill="#606060"/><g transform="translate(803.148 85.888)"><path d="M1688.3,408.678l12.585,22.5-10.234,8.871,13.455,8.225-18.612,73.4V410.206Z" transform="translate(-1685.497 -408.678)" fill="#3f8ecc"/></g><g transform="translate(738.203 85.716)"><path d="M1634.151,440.035l-10.234-8.871,12.68-22.67,2.711,1.477V521.665l-18.612-73.4Z" transform="translate(-1620.697 -408.495)" fill="#3f8ecc"/></g><path d="M1283.194,796.5v3.268a2.576,2.576,0,0,0,2.648,2.5h-20.335a2.576,2.576,0,0,1-2.648-2.5V796.5Z" transform="translate(-880.088 -344.724)" fill="#e4f3f3"/><path d="M1.937,0h47.19a1.937,1.937,0,0,1,1.937,1.937V5.765a0,0,0,0,1,0,0H0a0,0,0,0,1,0,0V1.937A1.937,1.937,0,0,1,1.937,0Z" transform="translate(454.351 457.546) rotate(180)" fill="#e4f3f3"/><g transform="translate(383.338 439.455)"><path d="M1308.412,784.523l-8.733-1.242h10.813C1308.83,784.365,1310.434,784.811,1308.412,784.523Z" transform="translate(-1263.81 -783.281)" fill="#a5b0b5"/><path d="M1278.907,783.281l8.733,1.242c2.022.288.418-.159,2.08-1.242h9.522c-10.98.778-14.44,7.9-15.534,12.325h-20.335C1264.467,791.184,1267.927,784.059,1278.907,783.281Z" transform="translate(-1263.373 -783.281)" fill="#a5b0b5"/></g><path d="M1283.956,795.606c1.094-4.422,4.553-11.547,15.534-12.325l8.733,1.242c2.022.288.418-.159,2.081-1.242h21.984l2.139,12.325Z" transform="translate(-880.16 -343.826)" fill="#a5b0b5"/><rect width="20.335" height="3.518" transform="translate(407.641 435.937)" fill="#4483aa"/><rect width="26.322" height="3.518" transform="translate(454.424 439.455) rotate(180)" fill="#4483aa"/><path d="M1309.638,525.731h33.055a5.307,5.307,0,0,1,5.391,4.617l5,48.705-33.28.413a4.864,4.864,0,0,1-5-4.221Z" transform="translate(-880.346 -329.42)" fill="#a5b0b5"/><path d="M1300.645,665.24a15.851,15.851,0,0,1,14.638-9.265H1336.9a15.852,15.852,0,0,0-14.638,9.265l-17.2,105.878h-21.619Z" transform="translate(-880.149 -335.18)" fill="#4483aa"/><path d="M1305.324,770.571l17.2-105.878a15.851,15.851,0,0,1,14.638-9.265H1380a4.157,4.157,0,0,0,4.272-4.031v-3.473h76.757v10.483c0,10.6-9.2,19.278-20.434,19.278h-88.256l-13.565,92.886Z" transform="translate(-879.974 -334.634)" fill="#5e91b7"/><path d="M1446.932,658.407V647.924h15.553v10.483c0,10.6-9.2,19.278-20.434,19.278H1426.5C1437.737,677.686,1446.932,669.01,1446.932,658.407Z" transform="translate(-881.136 -336.37)" fill="#4483aa"/><path d="M1370.145,512.567c1.325-6.624,9.611-6.77,9.611-6.77h25.5l7.314,3.984,2.438-3.984h0l-2.438,3.984-3.651,67.234,7.9,5.355,2.827.026,6.679-5.381-3.651-67.234-2.438-3.984h0l2.438,3.984,7.314-3.984h21.89a19.8,19.8,0,0,1,16.4,8.385,110.84,110.84,0,0,1,17.8,47.171H1468.88s-2.639-27.864-7.22-32.824V638.191h-81.9V539.268l-8.37,20.31-13.5-10.108C1369.362,526.353,1368.819,519.191,1370.145,512.567Z" transform="translate(-880.381 -327.757)" fill="#e4f3f3"/><path d="M1388.948,440.857v-4.032a3.748,3.748,0,0,1,.146-1.009h9.546c14.876,0,23.773-7.55,28.9-14.8a47.836,47.836,0,0,1,12.88,3.416c6.793,2.814,6,9.826,6,12.4v4.032h2.2c.02,0,.038,0,.056,0v13.754c0,14.214-12.213,25.738-27.281,25.738h-7.647c-15.066,0-27.281-11.523-27.281-25.738V440.857Z" transform="translate(-880.788 -323.645)" fill="#f3cdb0"/><path d="M1402.989,587.987a16.049,16.049,0,0,1,4.057-1s-1.443.243,0-2.367,10.235,1.774,10.293,1.8c4.523,0,8.25.217,8.25.217s33.278,0,41.412-13.16c1.506-2.435,2.16-3.76,2.286-8.073h21.667a37.194,37.194,0,0,1-3.867,15.691c-2.257,4.676-15.25,17.284-35.338,17.284h-48.077C1403.113,593.1,1397.688,590.355,1402.989,587.987Z" transform="translate(-880.78 -331.753)" fill="#f3cdb0"/><g transform="translate(461.632 222.93)"><path d="M1352.748,580.981a4.161,4.161,0,0,0,4.131-4.673l-1.665-16.791c.634-.643,1.266-1.338,1.9-2.076a25.057,25.057,0,0,0,2.363-3.355l14.865,11.125c-1.134,2.161-2.475,4.5-4.055,6.925-6.135,9.437-17.648,11.7-28.063,8.992Z" transform="translate(-1342.224 -554.086)" fill="#f3cdb0"/></g><path d="M1314.332,540.083a2.59,2.59,0,0,1,2.853,2.249l.028.282a2.526,2.526,0,0,1-2.384,2.692l.224-.019.439,11.082a2.729,2.729,0,0,1-2.575,2.76l-4.694.4a2.479,2.479,0,0,1-2.731-2.152l-1.063-11.187-.307-3.23a2.04,2.04,0,0,1,1.925-2.173Z" transform="translate(-880.388 -330.427)" fill="#f3cdb0"/><path d="M1413.958,484.543h7.647a28.606,28.606,0,0,0,9.675-1.7l1.193,9.331-14.3,7.787-14.321-7.8,1.173-9.061A28.658,28.658,0,0,0,1413.958,484.543Z" transform="translate(-881.01 -327.235)" fill="#e9bd9f"/><g transform="translate(502.528 85.751)"><path d="M1433.755,408.852c12.612-.882,16.1,10.142,16.1,19.069l-.252,4.324,2.559,5.36c0,1.338-1.362,2.422-3.043,2.422h-2.2V436c0-2.572.789-9.584-6-12.4a47.836,47.836,0,0,0-12.88-3.416C1432.775,413.477,1433.755,408.852,1433.755,408.852Z" transform="translate(-1383.814 -408.803)" fill="#0c5775"/><path d="M1388.909,437.9v4.032h-2.593c-1.68,0-3.042-1.085-3.042-2.422v-2.619h5.781A3.748,3.748,0,0,0,1388.909,437.9Z" transform="translate(-1383.275 -410.71)" fill="#0c5775"/></g><path d="M1386.468,434.611h14.369c26.835,0,32.953-26.412,32.953-26.412s-11.338-3.915-15.283-4.578c-4.768-.8-32.039-2.01-32.039,19.494Z" transform="translate(-880.837 -322.744)" fill="#1e6e87"/><path d="M1414.939,505.6l-18.958-10.371,3.123-5.1,18.979,10.338Z" transform="translate(-880.979 -327.65)" fill="#e4f3f3"/><path d="M1440.513,495.321,1421.5,505.6l-3.144-5.138,18.979-10.338Z" transform="translate(-881.128 -327.65)" fill="#e4f3f3"/><path d="M1418.246,501.212l1.232,2.013,3.829,76.413-3.036,2.447-2.827-.026-7.9-5.356,3.651-67.233Z" transform="translate(-881.095 -327.906)" fill="#3f8ecc"/><path d="M1449.434,417.046" transform="translate(-881.409 -321.154)" fill="none" stroke="#1a69a5" stroke-linecap="round" stroke-linejoin="round" stroke-width="1.167"/><path d="M1300.645,665.24a15.851,15.851,0,0,1,14.638-9.265H1336.9a15.852,15.852,0,0,0-14.638,9.265l-17.2,105.878h-21.619Z" transform="translate(-880.149 -335.18)" fill="none" stroke="#717272" stroke-linecap="round" stroke-linejoin="round" stroke-width="1.167"/><line y1="25.014" transform="translate(499.086 200.97)" stroke-width="1.167" stroke="#717272" stroke-linecap="round" stroke-linejoin="round" fill="none"/><path d="M1321.923,522.36l16.932-.239-.075-.76a3.982,3.982,0,0,0-3.933-3.542l-9.779.137a3.244,3.244,0,0,0-3.22,3.643Z" transform="translate(-880.497 -329.258)" fill="none" stroke="#717272" stroke-linecap="round" stroke-linejoin="round" stroke-width="1.167"/><g transform="translate(502.528 83.728)"><path d="M1434.29,406.881c14.887-2.189,17.873,12.1,17.873,21.027v9.552c0,1.338-1.362,2.422-3.043,2.422h-2.2V435.85c0-2.572.789-9.584-6-12.4a47.837,47.837,0,0,0-12.88-3.416A42.1,42.1,0,0,0,1434.29,406.881Z" transform="translate(-1383.814 -406.656)" fill="none" stroke="#717272" stroke-linecap="round" stroke-linejoin="round" stroke-width="1.167"/><path d="M1388.909,437.9v4.032h-2.593c-1.68,0-3.042-1.085-3.042-2.422v-2.619h5.781A3.748,3.748,0,0,0,1388.909,437.9Z" transform="translate(-1383.275 -408.709)" fill="none" stroke="#717272" stroke-linecap="round" stroke-linejoin="round" stroke-width="1.167"/></g><path d="M1419.584,457.746a7.654,7.654,0,0,0,15.283,0c0-1.991-3.82-1.73-7.641-1.73S1419.584,455.755,1419.584,457.746Z" transform="translate(-881.158 -325.76)" fill="#fff" stroke="#717272" stroke-linecap="round" stroke-linejoin="round" stroke-width="1.167"/><ellipse cx="2.486" cy="2.345" rx="2.486" ry="2.345" transform="translate(552.539 115.4)" fill="#0c5775"/><ellipse cx="2.486" cy="2.345" rx="2.486" ry="2.345" transform="translate(538.394 115.4)" fill="#0c5775"/><path d="M1402.989,587.987a16.049,16.049,0,0,1,4.057-1s-1.443.243,0-2.367,10.235,1.774,10.293,1.8c4.523,0,8.25.217,8.25.217s33.278,0,41.412-13.16c1.506-2.435,2.16-3.76,2.286-8.073h21.667a37.194,37.194,0,0,1-3.867,15.691c-2.257,4.676-15.25,17.284-35.338,17.284h-48.077C1403.113,593.1,1397.688,590.355,1402.989,587.987Z" transform="translate(-880.78 -331.753)" fill="none" stroke="#717272" stroke-linecap="round" stroke-linejoin="round" stroke-width="1.167"/><rect width="26.322" height="3.518" transform="translate(769.073 439.455) rotate(180)" stroke-width="1.167" stroke="#717272" stroke-linecap="round" stroke-linejoin="round" fill="none"/><path d="M1658.248,799.114h45.959a2.894,2.894,0,0,0,3.039-3.229l-2.187-12.6h-21.984c-1.663,1.084-.058,1.53-2.081,1.243l-8.733-1.243c-12.412.88-15.221,9.875-15.856,13.9A1.751,1.751,0,0,0,1658.248,799.114Z" transform="translate(-881.999 -343.826)" fill="none" stroke="#717272" stroke-linecap="round" stroke-linejoin="round" stroke-width="1.167"/><path d="M1704.634,802.445h-12.22l-3.924-2.258-3.924,2.258h-25.7a2.576,2.576,0,0,1-2.648-2.5v-.87h51.064v.87A2.576,2.576,0,0,1,1704.634,802.445Z" transform="translate(-881.997 -344.898)" fill="none" stroke="#717272" stroke-linecap="round" stroke-linejoin="round" stroke-width="1.167"/><rect width="26.322" height="3.518" transform="translate(825.286 439.455) rotate(180)" stroke-width="1.167" stroke="#717272" stroke-linecap="round" stroke-linejoin="round" fill="none"/><line x1="34.08" y1="19.546" transform="translate(785.378 255.446)" stroke-width="1.167" stroke="#717272" stroke-linecap="round" stroke-linejoin="round" fill="none"/><path d="M1656.872,419.435l5.73-9.364,5.731,9.364,4.14,92.263-9.643,7.771-10.1-7.771Z" transform="translate(-881.955 -322.877)" fill="none" stroke="#717272" stroke-linecap="round" stroke-linejoin="round" stroke-width="1.167"/><line y1="72.925" transform="translate(731.237 120.926)" stroke-width="1.167" stroke="#717272" stroke-linecap="round" stroke-linejoin="round" fill="none"/><path d="M1636.23,380.647a1.6,1.6,0,0,1-1.462-2.416c1.933-2.936,6.512-5,11.861-5s9.928,2.065,11.86,5a1.6,1.6,0,0,1-1.463,2.416Z" transform="translate(-881.736 -321.751)" fill="#0c5775"/><path d="M1305.324,770.571l17.2-105.878a15.851,15.851,0,0,1,14.638-9.265H1380a4.157,4.157,0,0,0,4.272-4.031v-3.473h76.757v10.483c0,10.6-9.2,19.278-20.434,19.278h-88.256l-13.565,92.886Z" transform="translate(-879.974 -334.634)" fill="none" stroke="#717272" stroke-linecap="round" stroke-linejoin="round" stroke-width="1.167"/><path d="M1283.194,796.5v3.268a2.576,2.576,0,0,0,2.648,2.5h-20.335a2.576,2.576,0,0,1-2.648-2.5V796.5Z" transform="translate(-880.088 -344.724)" fill="none" stroke="#717272" stroke-linecap="round" stroke-linejoin="round" stroke-width="1.167"/><path d="M1.937,0h47.19a1.937,1.937,0,0,1,1.937,1.937V5.765a0,0,0,0,1,0,0H0a0,0,0,0,1,0,0V1.937A1.937,1.937,0,0,1,1.937,0Z" transform="translate(454.351 457.546) rotate(180)" fill="none" stroke="#717272" stroke-linecap="round" stroke-linejoin="round" stroke-width="1.167"/><g transform="translate(383.338 439.455)"><path d="M1308.412,784.523l-8.733-1.242h10.813C1308.83,784.365,1310.434,784.811,1308.412,784.523Z" transform="translate(-1263.81 -783.281)" fill="none" stroke="#1a69a5" stroke-linecap="round" stroke-linejoin="round" stroke-width="1.167"/><path d="M1278.907,783.281l8.733,1.242c2.022.288.418-.159,2.08-1.242h9.522c-10.98.778-14.44,7.9-15.534,12.325h-20.335C1264.467,791.184,1267.927,784.059,1278.907,783.281Z" transform="translate(-1263.373 -783.281)" fill="none" stroke="#717272" stroke-linecap="round" stroke-linejoin="round" stroke-width="1.167"/></g><path d="M1283.956,795.606c1.094-4.422,4.553-11.547,15.534-12.325l8.733,1.242c2.022.288.418-.159,2.081-1.242h21.984l2.139,12.325Z" transform="translate(-880.16 -343.826)" fill="none" stroke="#717272" stroke-linecap="round" stroke-linejoin="round" stroke-width="1.167"/><rect width="20.335" height="3.518" transform="translate(407.641 435.937)" stroke-width="1.167" stroke="#717272" stroke-linecap="round" stroke-linejoin="round" fill="none"/><rect width="26.322" height="3.518" transform="translate(454.424 439.455) rotate(180)" stroke-width="1.167" stroke="#717272" stroke-linecap="round" stroke-linejoin="round" fill="none"/><path d="M1417.445,582.058c-.019-.008-.952-.472-2.249-1l-5.654-4.35,3.651-67.234,5.053-8.257,5.053,8.257,3.651,67.234-6.679,5.381C1419.387,582.068,1418.437,582.058,1417.445,582.058Z" transform="translate(-881.084 -327.906)" fill="none" stroke="#717272" stroke-linecap="round" stroke-linejoin="round" stroke-width="1.167"/><g transform="translate(461.632 222.93)"><path d="M1352.748,580.981a4.161,4.161,0,0,0,4.131-4.673l-1.665-16.791c.634-.643,1.266-1.338,1.9-2.076a25.057,25.057,0,0,0,2.363-3.355l14.865,11.125c-1.134,2.161-2.475,4.5-4.055,6.925-6.135,9.437-17.648,11.7-28.063,8.992Z" transform="translate(-1342.224 -554.086)" fill="none" stroke="#717272" stroke-linecap="round" stroke-linejoin="round" stroke-width="1.167"/></g><path d="M1312.983,557.951a2.73,2.73,0,0,0,2.575-2.76l-.439-11.082-.224.019a2.526,2.526,0,0,0,2.384-2.692l-.028-.282a2.59,2.59,0,0,0-2.853-2.249l-3.634.308-1.126-11.358a4.162,4.162,0,0,1,4.131-4.674l33.021-.465a5.107,5.107,0,0,1,5.045,4.545l4.652,46.917a4.161,4.161,0,0,1-4.131,4.673l-33.02.465a5.108,5.108,0,0,1-5.045-4.545l-1.665-16.79Z" transform="translate(-880.337 -329.236)" fill="none" stroke="#717272" stroke-linecap="round" stroke-linejoin="round" stroke-width="1.167"/><path d="M1314.332,540.083a2.59,2.59,0,0,1,2.853,2.249l.028.282a2.526,2.526,0,0,1-2.384,2.692l.224-.019.439,11.082a2.729,2.729,0,0,1-2.575,2.76l-4.694.4a2.479,2.479,0,0,1-2.731-2.152l-1.063-11.187-.307-3.23a2.04,2.04,0,0,1,1.925-2.173Z" transform="translate(-880.388 -330.427)" fill="none" stroke="#717272" stroke-linecap="round" stroke-linejoin="round" stroke-width="1.167"/><path d="M.111.056,9.78.307l.545,21.6L.656,21.657Z" transform="translate(537.204 172.755) rotate(120)" fill="none" stroke="#717272" stroke-linecap="round" stroke-width="1.167"/><g transform="translate(462.015 171.633)"><path d="M1352.748,577.238a4.161,4.161,0,0,0,4.131-4.673l-1.665-16.791c.634-.643,1.266-1.338,1.9-2.076a25.061,25.061,0,0,0,2.363-3.355l-1.783-1.336a102.212,102.212,0,0,0,10.159-26.153c.7-3.729,1.371-7.371,2.1-10.725l0-.027v0c.372-1.71.76-3.351,1.179-4.883,1.244-4.548,6.42-8.244,11.4-8.244h10.87l18.979,10.338,5.053-8.257,5.053,8.257,18.979-10.338h14.943c3.564,0,10.382,2.736,16.969,11.3,17.689,25.475,18.456,50.615,18.456,50.615h-23.145s.922-3.932-2.073-21.88v29.421c-.106.175-.207.345-.321.531-8.135,13.16-41.412,13.16-41.412,13.16s-3.728-.219-8.25-.217c-.057-.028-8.855-4.4-10.293-1.8s0,2.367,0,2.367a16.052,16.052,0,0,0-4.057,1c-5.3,2.368.125,5.11.684,10.389h48.077a46.232,46.232,0,0,0,15.573-2.677v40.837a5.966,5.966,0,0,1-6.131,5.785H1385.7a5.966,5.966,0,0,1-6.131-5.785v-77.9c-1.671,4.481-3.492,8.643-3.492,8.643l-1.733-1.3c-1.134,2.161-2.475,4.5-4.055,6.925-6.135,9.437-17.648,11.7-28.063,8.992Z" transform="translate(-1342.224 -498.98)" fill="none" stroke="#717272" stroke-linecap="round" stroke-linejoin="round" stroke-width="1.167"/></g><path d="M0,0,9.686-.252,9.141,21.357l-9.686.252Z" transform="translate(556.209 162.486) rotate(60)" fill="none" stroke="#717272" stroke-linecap="round" stroke-width="1.167"/><path d="M1413.958,484.543h7.647a28.606,28.606,0,0,0,9.675-1.7l1.193,9.331-14.3,7.787-14.321-7.8,1.173-9.061A28.658,28.658,0,0,0,1413.958,484.543Z" transform="translate(-881.01 -327.235)" fill="none" stroke="#717272" stroke-linecap="round" stroke-linejoin="round" stroke-width="1.167"/><path d="M1388.948,440.857v-4.032a3.748,3.748,0,0,1,.146-1.009h9.546c14.876,0,23.773-7.55,28.9-14.8a47.836,47.836,0,0,1,12.88,3.416c6.793,2.814,6,9.826,6,12.4v4.032h2.2c.02,0,.038,0,.056,0v13.754c0,14.214-12.213,25.738-27.281,25.738h-7.647c-15.066,0-27.281-11.523-27.281-25.738V440.857Z" transform="translate(-880.788 -323.645)" fill="none" stroke="#717272" stroke-linecap="round" stroke-linejoin="round" stroke-width="1.167"/><path d="M1383.274,434.477H1398.6c28.624,0,35.15-27.96,35.15-27.96s-12.094-4.144-16.3-4.847c-5.087-.849-34.176-2.129-34.176,20.637Z" transform="translate(-880.805 -322.63)" fill="none" stroke="#717272" stroke-linecap="round" stroke-linejoin="round" stroke-width="1.167"/><path d="M1708.555,577.859l9.5-20.679-.046.471v20.208Z" transform="translate(-882.627 -331.376)" fill="none" stroke="#717272" stroke-linecap="round" stroke-linejoin="round" stroke-width="1.167"/><path d="M1707.724,447.936l.447,46.351-35.483,86.455,23.849,13.678,37.345-81.252a41.3,41.3,0,0,0,2.908-25.915l-12.218-57.386" transform="translate(-882.195 -323.624)" fill="none" stroke="#717272" stroke-linecap="round" stroke-linejoin="round" stroke-width="1.167"/><g transform="translate(757.74 233.565)"><path d="M1662.719,568.772v-1.887a3.837,3.837,0,0,0-.27-1.376H1682.6l-1.9,4.639h-18.244A3.838,3.838,0,0,0,1662.719,568.772Z" transform="translate(-1639.812 -565.51)" fill="none" stroke="#717272" stroke-linecap="round" stroke-linejoin="round" stroke-width="1.167"/><path d="M1645.412,565.51a3.841,3.841,0,0,0-.271,1.376v1.887a3.841,3.841,0,0,0,.271,1.377h-5.876V565.51Z" transform="translate(-1639.536 -565.51)" fill="none" stroke="#717272" stroke-linecap="round" stroke-linejoin="round" stroke-width="1.167"/></g><path d="M1668.453,418.721l-5.731-9.364,17.986-9.8,9.267,7.438Z" transform="translate(-882.075 -322.565)" fill="none" stroke="#717272" stroke-linecap="round" stroke-linejoin="round" stroke-width="1.167"/><g transform="translate(654.313 87.302)"><path d="M1581.746,494.591a11.781,11.781,0,0,0,9.981-8.351l17.538-63.352c2.1-7.595,9.366-12.9,17.685-12.915l7.863-.013-11.917,21.3,10.233,8.87-13.454,8.226,18.612,73.4v46.1h-25.463V505.725a20.613,20.613,0,0,1-16.251,11.6l-55.514,7.054-5.181-23.892Z" transform="translate(-1535.88 -409.96)" fill="none" stroke="#717272" stroke-linecap="round" stroke-linejoin="round" stroke-width="1.167"/></g><path d="M1707.887,446.583l.447,46.351L1686.186,546.9V519.078l17.932-70.718-13.455-8.226,10.233-8.87-11.92-21.31h7.89c12.517,0,23.678,7.433,27.869,18.561" transform="translate(-882.357 -322.758)" fill="none" stroke="#717272" stroke-linecap="round" stroke-linejoin="round" stroke-width="1.167"/><path d="M1656.66,418.757l5.731-9.364-17.086-9.307-10.168,6.947Z" transform="translate(-881.743 -322.595)" fill="none" stroke="#717272" stroke-linecap="round" stroke-linejoin="round" stroke-width="1.167"/><path d="M1656.713,419.425l5.73-9.365,5.731,9.365,17.45-9.506V546.893l-3.262,7.949H1662.14a4.316,4.316,0,0,0-4.018-2.6h-8.658a4.316,4.316,0,0,0-4.018,2.6h-5.91V410.069Z" transform="translate(-881.796 -322.719)" fill="none" stroke="#717272" stroke-linecap="round" stroke-linejoin="round" stroke-width="1.167"/><path d="M1627.563,334.1a5.484,5.484,0,0,1,.081-.758v-2.477h0c0-7.105,6.106-12.866,13.637-12.866h41.076c7.532,0,13.638,5.76,13.638,12.866h0v15.622c0,1.338-1.363,2.423-3.043,2.423h-2.2v-6.275a8.8,8.8,0,0,0-9.046-8.535h-15.341a6.13,6.13,0,0,1-6.3,5.944h-19.738a5.689,5.689,0,0,0-5.428,3.679c-.851,2.438-1.621,5.187-1.621,5.187h-2.591c-1.681,0-3.043-1.085-3.043-2.423v-11.63A5.5,5.5,0,0,1,1627.563,334.1Z" transform="translate(-881.652 -318)" fill="none" stroke="#717272" stroke-linecap="round" stroke-linejoin="round" stroke-width="1.167"/><path d="M1633.318,350.083s.771-2.75,1.622-5.188a5.686,5.686,0,0,1,5.427-3.678h19.738a6.13,6.13,0,0,0,6.3-5.944h15.34a8.8,8.8,0,0,1,9.047,8.535v6.275h2.2c.019,0,.036,0,.056,0v24.08c0,8.512-7.314,15.412-16.336,15.412h-29.537c-9.022,0-16.335-6.9-16.335-15.412V350.083Z" transform="translate(-881.691 -319.173)" fill="none" stroke="#717272" stroke-linecap="round" stroke-linejoin="round" stroke-width="1.167"/><path d="M3.609,0H19.157a3.609,3.609,0,0,1,3.609,3.609V24.119a0,0,0,0,1,0,0H0a0,0,0,0,1,0,0V3.609A3.609,3.609,0,0,1,3.609,0Z" transform="translate(636.992 204.789) rotate(-180)" fill="none" stroke="#717272" stroke-linecap="round" stroke-linejoin="round" stroke-width="1.167"/><path d="M1526.786,512.607l-5.776.933v11.12s7.792-.506,7.994-3.165a64.314,64.314,0,0,0-.258-7.445A1.66,1.66,0,0,0,1526.786,512.607Z" transform="translate(-881.866 -328.926)" fill="none" stroke="#717272" stroke-linecap="round" stroke-linejoin="round" stroke-width="1.167"/><g transform="translate(639.745 177.309)"><path d="M1526.974,524.253c-.079.032-.156.065-.238.1C1526.818,524.318,1526.9,524.285,1526.974,524.253Z" transform="translate(-1521.643 -507.05)" fill="none" stroke="#717272" stroke-linecap="round" stroke-linejoin="round" stroke-width="1.167"/><path d="M1525.094,524.876c-.066.016-.13.034-.2.048C1524.962,524.91,1525.027,524.891,1525.094,524.876Z" transform="translate(-1521.62 -507.092)" fill="none" stroke="#717272" stroke-linecap="round" stroke-linejoin="round" stroke-width="1.167"/><path d="M1526.078,524.59c-.083.025-.162.053-.246.077C1525.916,524.643,1525.995,524.615,1526.078,524.59Z" transform="translate(-1521.631 -507.073)" fill="none" stroke="#717272" stroke-linecap="round" stroke-linejoin="round" stroke-width="1.167"/><path d="M1527.6,524.388v-1.7c-.037.02-.082.035-.121.055.857-.436,1.475-.991,1.529-1.708a64.314,64.314,0,0,0-.258-7.445,1.644,1.644,0,0,0-1.793-1.453,4.367,4.367,0,0,0-2.315-1.774l3.088-.3-3.088.3a4.549,4.549,0,0,0-1.432-.238c-3.474-1.621-.31-3.971-.4-4.308s10.029,3.754,10.029,3.754l3.355-.324,2.651,12.909-2.9,3.619a5.076,5.076,0,0,1-3.381,1.843s-7.43,2.752-7.43,1.46l-.2-.883A4.143,4.143,0,0,0,1527.6,524.388Z" transform="translate(-1521.58 -505.797)" fill="none" stroke="#717272" stroke-linecap="round" stroke-linejoin="round" stroke-width="1.167"/></g><path d="M1526.92,512.451a4.43,4.43,0,0,0-3.746-2.011H1518.9v2.955h2.073l5.776-.933A1.666,1.666,0,0,1,1526.92,512.451ZM1518.9,526v-.116h2.609a2.433,2.433,0,0,0,2.378-1.754,13.31,13.31,0,0,0,3.67-1.133v1.7a4.27,4.27,0,0,1-4.389,4.14h-4.86A7.141,7.141,0,0,0,1518.9,526Z" transform="translate(-881.843 -328.774)" fill="none" stroke="#717272" stroke-linecap="round" stroke-linejoin="round" stroke-width="1.167"/><path d="M1662.448,564.979c-.014-.035-.033-.067-.048-.1h20.237l2.952-7.192h0l-2.993,7.294Z" transform="translate(-882.071 -331.488)" fill="none" stroke="#1a69a5" stroke-linecap="round" stroke-linejoin="round" stroke-width="1.167"/><path d="M1622.338,784.112l2.9.412c2.022.288.418-.159,2.081-1.242H1649.3l2.187,12.6a2.894,2.894,0,0,1-3.038,3.229h-26.114Z" transform="translate(-882.458 -343.826)" fill="none" stroke="#717272" stroke-linecap="round" stroke-linejoin="round" stroke-width="1.167"/><g transform="translate(739.943 241.112)"><path d="M1658.893,597.85h-34.565l.955-19.087h14.07v-8.276h5.876a4.3,4.3,0,0,0,4.052,2.7h5.911v2.681C1655.192,585.31,1656.32,591.994,1658.893,597.85Z" transform="translate(-1622.362 -570.487)" fill="none" stroke="#717272" stroke-linecap="round" stroke-linejoin="round" stroke-width="1.167"/><path d="M1623.283,621.035H1647c5.811,0,10.523-4.445,10.523-9.928h6.7c.087.7-3.483.145-3.483.858l4.469,39.1-13.677,117.006h-29.19V639.923Z" transform="translate(-1622.338 -573.245)" fill="none" stroke="#717272" stroke-linecap="round" stroke-linejoin="round" stroke-width="1.167"/></g><path d="M1665.145,608.084a4.748,4.748,0,0,0,4.881-4.6v-1.291a4.748,4.748,0,0,0-4.881-4.6h-5.876c-2.573-5.856-3.7-12.54-3.7-21.982v-2.681h2.747a4.3,4.3,0,0,0,4.052-2.7h18.244l1.492-3.634-9.62,23.438,23.849,13.678,11.187-24.34v12.566l.4,173.116h-28.939l-17.84-156.107c0-.713,3.569-.16,3.483-.857Z" transform="translate(-881.989 -329.11)" fill="none" stroke="#717272" stroke-linecap="round" stroke-linejoin="round" stroke-width="1.167"/><ellipse cx="3.128" cy="2.951" rx="3.128" ry="2.951" transform="translate(766.243 232.933)" fill="#3f8ecc"/><path d="M1622.338,799.077h29.19v.87a2.576,2.576,0,0,1-2.648,2.5h-12.22l-3.924-2.258-3.924,2.258h-6.474Z" transform="translate(-882.458 -344.898)" fill="none" stroke="#717272" stroke-linecap="round" stroke-linejoin="round" stroke-width="1.167"/><ellipse cx="2.486" cy="2.345" rx="2.486" ry="2.345" transform="translate(769.442 40.129)" fill="#0c5775"/><ellipse cx="2.486" cy="2.345" rx="2.486" ry="2.345" transform="translate(755.372 40.129)" fill="#0c5775"/><path d="M1690.15,351.162h3.935c2.174,0,3.936,2.263,3.936,5.056h0c0,2.793-1.762,5.057-3.936,5.057h-3.935" transform="translate(-882.405 -320.252)" fill="#f3ceb1" stroke="#1a69a5" stroke-linecap="round" stroke-linejoin="round" stroke-width="1.167"/><ellipse cx="1.929" cy="1.82" rx="1.929" ry="1.82" transform="translate(807.822 35.804)" fill="#e9bd9f"/><path d="M1389.03,442.3H1385.1c-2.173,0-3.935,2.263-3.935,5.056h0c0,2.793,1.761,5.057,3.935,5.057h3.935" transform="translate(-880.922 -324.986)" fill="#f3ceb1" stroke="#717272" stroke-linecap="round" stroke-linejoin="round" stroke-width="1.167"/><ellipse cx="1.929" cy="1.82" rx="1.929" ry="1.82" transform="translate(504.183 122.251)" fill="#e9bd9f"/><path d="M1668.278,594.666s-.717,25.778,30.1,33.182V612.491S1669.218,593.778,1668.278,594.666Z" transform="translate(-882.142 -333.376)" fill="#669abb"/><g transform="translate(673.518 207.193)"><path d="M.068.008,2.7.043l.321,23.112L.389,23.12Z" transform="translate(0 0.594) rotate(-13.617)" fill="#74aad4"/><path d="M.52.011,1.6.025l.116,8.357L.141,8.362.031.473A.467.467,0,0,1,.52.011Z" transform="translate(5.249 14.529) rotate(-13.617)" fill="#3f8ecc"/><path d="M0,.006,2.1.033,2.12,1.168.019,1.14Z" transform="translate(6.336 22.851) rotate(-13.617)" fill="#3f8ecc"/><path d="M.006,0,.977.015l.03,2.132L.036,2.135Z" transform="translate(7.155 23.831) rotate(-13.617)" fill="#3f8ecc"/></g><g transform="translate(677.785 202.85)"><path d="M0,0,2.645-.029,2.379,23.06l-2.645.029Z" transform="translate(2.658 26.173) rotate(-168.841)" fill="#74aad4"/><path d="M.493-.006,1.578-.018l-.1,8.349L-.1,8.348-.007.467A.5.5,0,0,1,.493-.006Z" transform="matrix(-0.981, -0.194, 0.194, -0.981, 4.123, 11.455)" fill="#3f8ecc"/><path d="M0,0,2.1-.023,2.09,1.111l-2.1.023Z" transform="translate(6.854 3.474) rotate(-168.841)" fill="#3f8ecc"/><path d="M0,0,.972-.011.948,2.12l-.972.011Z" transform="translate(6.542 2.263) rotate(-168.841)" fill="#3f8ecc"/></g><path d="M1553.43,570.956h10.293a3.434,3.434,0,0,0,3.2-3.627V549.983a3.434,3.434,0,0,0-3.2-3.627H1553.43a3.434,3.434,0,0,0-3.2,3.627v17.346A3.434,3.434,0,0,0,1553.43,570.956Z" transform="translate(-882.029 -330.747)" fill="#eeecd4"/><path d="M1.239,0H29a0,0,0,0,1,0,0V7.373a0,0,0,0,1,0,0H1.239A1.239,1.239,0,0,1,0,6.135v-4.9A1.239,1.239,0,0,1,1.239,0Z" transform="translate(679.052 249.908) rotate(180)" fill="#e4f3f3"/><rect width="16.398" height="15.617" transform="translate(645.796 250.228)" fill="#74aad4"/><rect width="16.398" height="6.114" transform="translate(662.194 261.194) rotate(180)" fill="#e5cfb3"/><rect width="45.637" height="15.617" transform="translate(708.038 265.845) rotate(180)" fill="#e4f3f3"/><g transform="translate(629.39 296.834)"><rect width="101.718" height="160.601" transform="translate(101.718 160.601) rotate(180)" fill="#e4f3f3"/></g><rect width="101.718" height="160.601" transform="translate(345.67 457.435) rotate(180)" fill="#e4f3f3"/><rect width="15.908" height="168.533" transform="translate(613.044 288.901)" fill="#74aad4"/><path d="M1148.018,501.212l112.082-.466a9.04,9.04,0,0,1,8.366,7.989l5.319,58.491a7.336,7.336,0,0,1-7.474,8.082l-49.331.205-1.877-33.438a4.447,4.447,0,0,0-4.546-4.07,4.676,4.676,0,0,1-6.783,0,4.447,4.447,0,0,0-4.547,4.07l-1.882,33.52-43.115.179a9.04,9.04,0,0,1-8.366-7.989l-5.319-58.491A7.336,7.336,0,0,1,1148.018,501.212Zm89.668,69.255h24.534a3.956,3.956,0,0,0,4.075-4.189l-1.016-11.176a6.243,6.243,0,0,0-6.353-5.5h-22.581a3.143,3.143,0,0,0-3.238,3.328l1.34,14.734A3.181,3.181,0,0,0,1237.685,570.467Z" transform="translate(-879.075 -327.919)" fill="#e4f3f3"/><path d="M1209.626,541.054a4.322,4.322,0,0,1,2.852,3.759l2.57,45.789H1204.2l2.571-45.789A4.32,4.32,0,0,1,1209.626,541.054Z" transform="translate(-879.72 -330.291)" fill="#a5b0b5"/><rect width="15.908" height="168.533" transform="translate(227.242 288.901)" fill="#74aad4"/><rect width="101.757" height="33.31" transform="translate(345.689 320.185) rotate(180)" fill="#d3e9e9"/><rect width="16.465" height="33.31" transform="translate(227.243 286.875)" fill="#619fc5"/><path d="M0,0H472.441a0,0,0,0,1,0,0V6.592A3.336,3.336,0,0,1,469.1,9.928H3.336A3.336,3.336,0,0,1,0,6.592V0A0,0,0,0,1,0,0Z" transform="translate(190.45 276.633)" fill="#e4f3f3"/><path d="M1556.9,605.739v-1.291a4.747,4.747,0,0,0-4.88-4.6H1663.9a4.748,4.748,0,0,1,4.881,4.6v1.291a4.748,4.748,0,0,1-4.881,4.6H1552.016A4.747,4.747,0,0,0,1556.9,605.739Z" transform="translate(-881.595 -333.837)" fill="#5e91b7"/><rect width="499.596" height="10.498" rx="1.764" transform="translate(173.643 266.007)" fill="#4483aa"/><path d="M0,0H472.441a0,0,0,0,1,0,0V6.592A3.336,3.336,0,0,1,469.1,9.928H3.336A3.336,3.336,0,0,1,0,6.592V0A0,0,0,0,1,0,0Z" transform="translate(190.45 276.633)" fill="none" stroke="#717272" stroke-linecap="round" stroke-linejoin="round" stroke-width="1.167"/><path d="M1546.289,611.107c0,5.483-4.711,9.928-10.522,9.928h110.19c5.811,0,10.523-4.445,10.523-9.928Z" transform="translate(-881.478 -334.474)" fill="none" stroke="#717272" stroke-linecap="round" stroke-linejoin="round" stroke-width="1.167"/><path d="M1556.9,605.739v-1.291a4.747,4.747,0,0,0-4.88-4.6H1663.9a4.748,4.748,0,0,1,4.881,4.6v1.291a4.748,4.748,0,0,1-4.881,4.6H1552.016A4.747,4.747,0,0,0,1556.9,605.739Z" transform="translate(-881.595 -333.837)" fill="none" stroke="#717272" stroke-linecap="round" stroke-linejoin="round" stroke-width="1.167"/><rect width="499.596" height="10.498" rx="1.764" transform="translate(173.643 266.007)" stroke-width="1.167" stroke="#717272" stroke-linecap="round" stroke-linejoin="round" fill="none"/><rect width="15.908" height="168.533" transform="translate(227.242 288.901)" stroke-width="1.167" stroke="#717272" stroke-linecap="round" stroke-linejoin="round" fill="none"/><rect width="110.19" height="168.533" transform="translate(353.577 457.435) rotate(180)" stroke-width="1.167" stroke="#717272" stroke-linecap="round" stroke-linejoin="round" fill="none"/><rect width="15.908" height="168.533" transform="translate(613.044 288.901)" stroke-width="1.167" stroke="#717272" stroke-linecap="round" stroke-linejoin="round" fill="none"/><rect width="110.19" height="168.533" transform="translate(739.618 457.435) rotate(180)" stroke-width="1.167" stroke="#717272" stroke-linecap="round" stroke-linejoin="round" fill="none"/><path d="M1282.1,567.223l-5.319-58.491a9.042,9.042,0,0,0-8.937-8.015l3.845-.016a9.044,9.044,0,0,1,8.938,8.015l5.319,58.491a7.336,7.336,0,0,1-7.474,8.082l-3.846.016A7.336,7.336,0,0,0,1282.1,567.223Z" transform="translate(-880.133 -327.919)" fill="none" stroke="#717272" stroke-linecap="round" stroke-linejoin="round" stroke-width="1.167"/><path d="M1148.018,501.21l118.293-.492a9.042,9.042,0,0,1,8.937,8.015l5.319,58.491a7.336,7.336,0,0,1-7.474,8.082l-56.111.234-1.879-33.467a4.575,4.575,0,0,0-9.094,0l-1.882,33.52-49.326.205a9.042,9.042,0,0,1-8.937-8.015l-5.319-58.491A7.336,7.336,0,0,1,1148.018,501.21Z" transform="translate(-879.061 -327.917)" fill="none" stroke="#717272" stroke-linecap="round" stroke-linejoin="round" stroke-width="1.167"/><g transform="translate(313.175 261.701)"><path d="M1228.219,595.329h10.448v4.208h-8.624v-.645A4.487,4.487,0,0,0,1228.219,595.329Z" transform="translate(-1193.179 -595.329)" fill="none" stroke="#717272" stroke-linecap="round" stroke-linejoin="round" stroke-width="1.167"/><path d="M1194.5,595.329h.081a4.485,4.485,0,0,0-1.825,3.563v-1.917A1.7,1.7,0,0,1,1194.5,595.329Z" transform="translate(-1192.752 -595.329)" fill="none" stroke="#717272" stroke-linecap="round" stroke-linejoin="round" stroke-width="1.167"/></g><path d="M1204.2,590.58l2.571-45.79a4.575,4.575,0,0,1,9.094,0l2.571,45.79Z" transform="translate(-879.714 -330.27)" fill="none" stroke="#717272" stroke-linecap="round" stroke-linejoin="round" stroke-width="1.167"/><path d="M0,0H36.864a0,0,0,0,1,0,0V0a5.249,5.249,0,0,1-5.249,5.249H5.249A5.249,5.249,0,0,1,0,0V0A0,0,0,0,1,0,0Z" transform="translate(350.022 265.904) rotate(180)" fill="none" stroke="#717272" stroke-linecap="round" stroke-linejoin="round" stroke-width="1.167"/><path d="M1238.794,599.537v-4.208l22.826,1.412a2.877,2.877,0,0,1,2.776,2.8h-25.6Z" transform="translate(-879.922 -333.628)" fill="none" stroke="#717272" stroke-linecap="round" stroke-linejoin="round" stroke-width="1.167"/><rect width="4.142" height="11.943" rx="0.657" transform="translate(291.083 237.467) rotate(-180)" fill="#a5b0b5"/><rect width="4.142" height="11.943" rx="0.657" transform="translate(284.508 237.467) rotate(-180)" fill="#a5b0b5"/><path d="M1237.227,556.941l1.422,15.64h2.127L1239,556.941Z" transform="translate(-879.958 -331.395)" fill="#e4f3f3"/><path d="M1239.973,556.941l1.422,15.64h2.127l-1.775-15.64Z" transform="translate(-879.977 -331.395)" fill="#e4f3f3"/><line x2="73.738" transform="translate(261.356 181.083)" stroke-width="1.167" stroke="#717272" stroke-linecap="round" stroke-linejoin="round" fill="none"/><line x2="13.517" transform="translate(341.679 181.083)" stroke-width="1.167" stroke="#717272" stroke-linecap="round" stroke-linejoin="round" fill="none"/><line x1="86.136" transform="translate(653.514 448.481)" stroke-width="1.167" stroke="#717272" stroke-linecap="round" stroke-linejoin="round" fill="none"/><line x1="12.717" transform="translate(629.026 448.481)" stroke-width="1.167" stroke="#717272" stroke-linecap="round" stroke-linejoin="round" fill="none"/><line x1="86.136" transform="translate(267.539 448.481)" stroke-width="1.167" stroke="#717272" stroke-linecap="round" stroke-linejoin="round" fill="none"/><line x1="12.717" transform="translate(243.231 448.481)" stroke-width="1.167" stroke="#717272" stroke-linecap="round" stroke-linejoin="round" fill="none"/><ellipse cx="4.566" cy="4.307" rx="4.566" ry="4.307" transform="translate(224.036 216.78)" fill="#eeecd4"/><ellipse cx="4.566" cy="4.307" rx="4.566" ry="4.307" transform="translate(226.05 209.393)" fill="#eeecd4"/><ellipse cx="4.566" cy="4.307" rx="4.566" ry="4.307" transform="translate(233.932 209.393)" fill="#eeecd4"/><ellipse cx="4.566" cy="4.307" rx="4.566" ry="4.307" transform="translate(230.891 214.877)" fill="#eeecd4"/><ellipse cx="4.566" cy="4.307" rx="4.566" ry="4.307" transform="translate(236.648 216.78)" fill="#eeecd4"/><ellipse cx="4.566" cy="4.307" rx="4.566" ry="4.307" transform="translate(230.64 221.142)" fill="#eeecd4"/><path d="M1090.974,553.77s21.946.686,28.778,31.812h-10.6C1109.129,583.69,1108.471,562.287,1090.974,553.77Z" transform="translate(-878.934 -331.114)" fill="#68bc45"/><rect width="25.066" height="10.487" transform="translate(245.703 265.221) rotate(180)" fill="#e4f3f3"/><rect width="29.627" height="10.487" transform="translate(250.271 265.221) rotate(180)" stroke-width="1.167" stroke="#717272" stroke-linecap="round" stroke-linejoin="round" fill="none"/><rect width="5.903" height="10.487" transform="translate(250.398 254.734)" stroke-width="1.167" stroke="#717272" stroke-linecap="round" stroke-linejoin="round" fill="none"/><path d="M1113.04,586.367s.872-14.924,14.534-21.036c0,0-9.3,12.535-4.65,21.036Z" transform="translate(-879.101 -331.83)" fill="none" stroke="#717272" stroke-linecap="round" stroke-linejoin="round" stroke-width="1.167"/><path d="M1116.858,585.636s-6.782-22.943-3.827-31.08" transform="translate(-879.109 -331.162)" fill="none" stroke="#717272" stroke-linecap="round" stroke-linejoin="round" stroke-width="1.167"/><ellipse cx="3.551" cy="3.35" rx="3.551" ry="3.35" transform="translate(230.637 216.457)" stroke-width="1.167" stroke="#717272" stroke-linecap="round" stroke-linejoin="round" fill="none"/><rect width="45.637" height="15.617" transform="translate(708.038 265.845) rotate(180)" stroke-width="1.167" stroke="#717272" stroke-linecap="round" stroke-linejoin="round" fill="none"/><rect width="16.398" height="15.617" transform="translate(645.796 250.228)" stroke-width="1.167" stroke="#717272" stroke-linecap="round" stroke-linejoin="round" fill="none"/><rect width="25.435" height="6.114" transform="translate(691.844 261.194) rotate(180)" fill="#e5cfb3"/><ellipse cx="3.13" cy="2.953" rx="3.13" ry="2.953" transform="translate(696.21 255.079)" fill="#3f8ecc"/><path d="M1532.467,577.568c0-2.662-1.519-4.82-3.394-4.82h30.921c1.875,0,3.395,2.158,3.395,4.82s-1.52,4.819-3.395,4.819h-30.921C1530.947,582.387,1532.467,580.229,1532.467,577.568Z" transform="translate(-881.819 -332.32)" fill="none" stroke="#717272" stroke-linecap="round" stroke-linejoin="round" stroke-width="1.167"/><path d="M1563.765,577.568c0-2.662-1.52-4.82-3.394-4.82h26.339c1.874,0,3.394,2.158,3.394,4.82s-1.519,4.819-3.394,4.819h-26.339C1562.245,582.387,1563.765,580.229,1563.765,577.568Z" transform="translate(-882.044 -332.32)" fill="none" stroke="#717272" stroke-linecap="round" stroke-linejoin="round" stroke-width="1.167"/><rect width="20.043" height="24.6" rx="3.891" transform="translate(668.212 215.609)" stroke-width="1.167" stroke="#717272" stroke-linecap="round" stroke-linejoin="round" fill="none"/></g><text transform="translate(1690.527 179.238)" fill="#fff" font-size="19" font-family="SegoeUI, Segoe UI" letter-spacing="0.07em"><tspan x="-36.475" y="0">Contact</tspan></text><line y2="20.992" transform="translate(1628.386 164.157)" fill="none" stroke="#fff" stroke-miterlimit="10" stroke-width="1"/><g transform="translate(261 120.558)"><g transform="translate(0)"><path d="M321.34,145.027,297.8,200.106c-12.5,0-20.752-13.5-15.432-25.236l34.549-76.247h0A48.753,48.753,0,0,1,321.34,145.027Zm7.282-22.062c1.617,10.413,1.9,24.011-2.329,33.9l-3.868,9.048,7.907,19.3h26.493Z" transform="translate(-280.723 -98.623)" fill="url(#d)"/></g><g transform="matrix(1, 0, 0, 1, -261, -120.56)" filter="url(#e)"><text transform="translate(353.25 182.88)" fill="#7f95c1" font-size="40" font-family="SegoeUI, Segoe UI" letter-spacing="0.1em"><tspan x="0" y="0">App</tspan><tspan y="0" fill="#6d6e6e">licant</tspan></text></g></g><g clip-path="url(#g)"><g transform="matrix(1, 0, 0, 1, 0, 0)" filter="url(#h)"><path d="M-.734,234.766S251.223,280.853,468.549,285.1C802.48,291.624,851.878,124.78,1035.64,24.114c24.81-13.591,52.237-24.986,81.581-34.487h.42s86.941-20.506,330.968-77.363C1680.771-141.83-61-139-61-139v410.12l26.675-41.944Z" transform="translate(0.73 10.37)" fill="#fff"/></g></g></g></svg>